<?xml version="1.0" encoding="UTF-8"?>
<svg xmlns="http://www.w3.org/2000/svg" xmlns:xlink="http://www.w3.org/1999/xlink"
     width="18px" height="16px" viewBox="0 0 8 9" version="1.1">
<g id="surface1">
<path style=" stroke:none;fill-rule:nonzero;fill:#8d8d8d;fill-opacity:1;" d="M 8 4.601562 C 8 7.089844 6.410156 8.859375 4.066406 8.859375 C 1.816406 8.859375 0 6.910156 0 4.5 C 0 2.089844 1.816406 0.140625 4.066406 0.140625 C 5.160156 0.140625 6.082031 0.570312 6.792969 1.28125 L 5.683594 2.421875 C 4.238281 0.925781 1.546875 2.050781 1.546875 4.5 C 1.546875 6.019531 2.679688 7.253906 4.066406 7.253906 C 5.675781 7.253906 6.277344 6.015625 6.375 5.375 L 4.066406 5.375 L 4.066406 3.875 L 7.9375 3.875 C 7.972656 4.097656 8 4.3125 8 4.601562 Z M 8 4.601562 "/>
</g>
</svg>
