<?xml version="1.0" encoding="UTF-8"?>
<svg xmlns="http://www.w3.org/2000/svg" xmlns:xlink="http://www.w3.org/1999/xlink"
     width="18px" height="16px" viewBox="0 0 7 9" version="1.1">
<g id="surface1">
<path style=" stroke:none;fill-rule:nonzero;fill:#8d8d8d;fill-opacity:1;" d="M 1.566406 7.875 L 0.117188 7.875 L 0.117188 2.617188 L 1.566406 2.617188 Z M 0.839844 1.898438 C 0.375 1.898438 0 1.46875 0 0.945312 C 0 0.421875 0.375 0 0.839844 0 C 1.304688 0 1.679688 0.421875 1.679688 0.945312 C 1.679688 1.46875 1.304688 1.898438 0.839844 1.898438 Z M 7 7.875 L 5.550781 7.875 L 5.550781 5.316406 C 5.550781 4.707031 5.539062 3.921875 4.796875 3.921875 C 4.042969 3.921875 3.925781 4.585938 3.925781 5.273438 L 3.925781 7.875 L 2.476562 7.875 L 2.476562 2.617188 L 3.867188 2.617188 L 3.867188 3.335938 L 3.886719 3.335938 C 4.082031 2.921875 4.554688 2.484375 5.261719 2.484375 C 6.730469 2.484375 7 3.574219 7 4.988281 Z M 7 7.875 "/>
</g>
</svg>
