<?xml version="1.0" encoding="UTF-8"?>
<svg xmlns="http://www.w3.org/2000/svg" xmlns:xlink="http://www.w3.org/1999/xlink"
     width="18px" height="16px" viewBox="0 0 6 9" version="1.1">
<g id="surface1">
<path style=" stroke:none;fill-rule:nonzero;fill:#8d8d8d;fill-opacity:1;" d="M 3.1875 0.113281 C 1.585938 0.113281 0 1.316406 0 3.261719 C 0 4.5 0.617188 5.203125 0.992188 5.203125 C 1.148438 5.203125 1.238281 4.71875 1.238281 4.582031 C 1.238281 4.417969 0.867188 4.070312 0.867188 3.390625 C 0.867188 1.976562 1.824219 0.972656 3.0625 0.972656 C 4.125 0.972656 4.914062 1.652344 4.914062 2.902344 C 4.914062 3.835938 4.578125 5.589844 3.5 5.589844 C 3.113281 5.589844 2.78125 5.273438 2.78125 4.816406 C 2.78125 4.152344 3.191406 3.511719 3.191406 2.824219 C 3.191406 1.660156 1.726562 1.871094 1.726562 3.277344 C 1.726562 3.574219 1.757812 3.902344 1.875 4.167969 C 1.660156 5.214844 1.21875 6.769531 1.21875 7.84375 C 1.21875 8.175781 1.261719 8.503906 1.289062 8.835938 C 1.34375 8.902344 1.316406 8.894531 1.398438 8.863281 C 2.183594 7.648438 2.15625 7.414062 2.511719 5.824219 C 2.703125 6.238281 3.203125 6.457031 3.59375 6.457031 C 5.253906 6.457031 6 4.640625 6 3 C 6 1.253906 4.660156 0.113281 3.1875 0.113281 Z M 3.1875 0.113281 "/>
</g>
</svg>
